<?xml version="1.0" encoding="UTF-8"?><svg id="a" xmlns="http://www.w3.org/2000/svg" viewBox="0 0 499.04 489.8"><defs><style>.b{fill:#181716;}.c{fill:#00963e;}.d{fill:#009ee3;}.e{fill:#ff000b;}.f{fill:#ffed00;}</style></defs><path class="f" d="M314.99,317.82c0,52.49-25.83,98.95-65.47,127.36-25.67,18.39-57.12,29.22-91.11,29.22C71.94,474.4,1.83,404.29,1.83,317.82c0-63.89,38.27-118.84,93.13-143.18,1.02,61.21,37.17,113.87,89.15,138.71,20.41,9.75,43.27,15.21,67.4,15.21,22.59,0,44.07-4.78,63.46-13.4.01.88.02,1.77.02,2.66Z"/><path class="c" d="M249.52,190.46c-38.51,27.6-63.99,72.23-65.41,122.89-51.98-24.84-88.13-77.5-89.15-138.71,19.4-8.62,40.87-13.4,63.45-13.4,33.99,0,65.44,10.82,91.11,29.22Z"/><path class="d" d="M408.09,171.98c0,1.5-.02,2.99-.06,4.47-20.41-9.75-43.27-15.21-67.4-15.21-33.99,0-65.44,10.82-91.11,29.22-25.67-18.4-57.12-29.22-91.11-29.22-22.58,0-44.05,4.78-63.45,13.4-.01-.88-.02-1.77-.02-2.66,0-86.48,70.1-156.58,156.57-156.58s156.58,70.1,156.58,156.58Z"/><path class="b" d="M408.03,176.45c-1.74,61.97-39.48,114.93-93.06,138.71-19.39,8.62-40.87,13.4-63.46,13.4-24.13,0-46.99-5.46-67.4-15.21,1.42-50.66,26.9-95.29,65.41-122.89,25.67-18.4,57.12-29.22,91.11-29.22,24.13,0,46.99,5.46,67.4,15.21Z"/><path class="e" d="M497.21,317.82c0,86.47-70.1,156.58-156.58,156.58-33.99,0-65.44-10.83-91.11-29.22-39.64-28.41-65.47-74.87-65.47-127.36,0-1.5.02-2.99.06-4.47,20.41,9.75,43.27,15.21,67.4,15.21,22.59,0,44.07-4.78,63.46-13.4,53.58-23.78,91.32-76.74,93.06-138.71,52.74,25.18,89.18,79.02,89.18,141.37Z"/></svg>